<svg xmlns="http://www.w3.org/2000/svg" viewBox="0 0 422.55 422.55"><defs><style>.cls-1{fill:#016df4;}.cls-2{fill:#fff;}</style></defs><g id="Layer_2" data-name="Layer 2"><g id="Layer_1-2" data-name="Layer 1"><circle class="cls-1" cx="211.27" cy="211.27" r="211.27"/><path class="cls-2" d="M316.15,250.57l-68-39.29,68-39.3a18.41,18.41,0,1,0-18.41-31.89l-68.05,39.29V100.8a18.42,18.42,0,1,0-36.83,0v78.58l-68.05-39.29A18.41,18.41,0,0,0,106.39,172l68.06,39.3-68.06,39.29a18.41,18.41,0,1,0,18.42,31.89l68.05-39.29v78.58a18.42,18.42,0,1,0,36.83,0V243.17l68.05,39.29a18.41,18.41,0,0,0,18.41-31.89Z"/></g></g></svg>