<svg width="17" height="17" viewBox="0 0 17 17" fill="none" xmlns="http://www.w3.org/2000/svg">
<path fill-rule="evenodd" clip-rule="evenodd" d="M6.32149 0.488155C6.63405 0.175595 7.05797 0 7.5 0H9.16667C9.60869 0 10.0326 0.175595 10.3452 0.488155C10.6577 0.800716 10.8333 1.22464 10.8333 1.66667V1.74067L11.2275 1.90391L11.28 1.85149C11.2798 1.85164 11.2802 1.85134 11.28 1.85149C11.5925 1.53932 12.0166 1.36351 12.4583 1.36351C12.9003 1.36351 13.3241 1.53904 13.6367 1.85149L14.8151 3.02991C15.1275 3.34246 15.3032 3.76639 15.3032 4.20833C15.3032 4.65006 15.1278 5.07371 14.8156 5.38621L14.7628 5.43919L14.926 5.83333H15C15.442 5.83333 15.866 6.00893 16.1785 6.32149C16.4911 6.63405 16.6667 7.05797 16.6667 7.5V9.16667C16.6667 9.60869 16.4911 10.0326 16.1785 10.3452C15.866 10.6577 15.442 10.8333 15 10.8333H14.926L14.7628 11.2275L14.8152 11.28C15.1276 11.5925 15.3032 12.0164 15.3032 12.4583C15.3032 12.9003 15.1276 13.3241 14.8152 13.6367L13.6368 14.8151C13.3242 15.1275 12.9003 15.3032 12.4583 15.3032C12.0164 15.3032 11.5925 15.1276 11.28 14.8152L11.2272 14.7624L10.8333 14.9257V15C10.8333 15.442 10.6577 15.866 10.3452 16.1785C10.0326 16.4911 9.60869 16.6667 9.16667 16.6667H7.5C7.05797 16.6667 6.63405 16.4911 6.32149 16.1785C6.00893 15.866 5.83333 15.442 5.83333 15V14.926L5.43919 14.7628L5.38667 14.8152C5.07417 15.1273 4.65006 15.3032 4.20833 15.3032C3.76639 15.3032 3.34254 15.1276 3.03 14.8152L1.85158 13.6368C1.53913 13.3242 1.36351 12.9003 1.36351 12.4583C1.36351 12.0166 1.53886 11.593 1.85103 11.2805C1.85087 11.2806 1.85118 11.2803 1.85103 11.2805L1.90391 11.2275L1.74067 10.8333H1.66667C1.22464 10.8333 0.800716 10.6577 0.488155 10.3452C0.175595 10.0326 0 9.60869 0 9.16667V7.5C0 7.05797 0.175595 6.63405 0.488155 6.32149C0.800716 6.00893 1.22464 5.83333 1.66667 5.83333H1.74097L1.90432 5.43949L1.85158 5.38676C1.53913 5.07421 1.36351 4.65027 1.36351 4.20833C1.36351 3.76639 1.53904 3.34255 1.85149 3.03L3.02991 1.85158C3.34246 1.53912 3.76639 1.36351 4.20833 1.36351C4.65006 1.36351 5.0737 1.53886 5.38621 1.85103L5.43919 1.90391L5.83333 1.74067V1.66667C5.83333 1.22464 6.00893 0.800716 6.32149 0.488155ZM9.16667 1.66667H7.5V2.2975C7.5 2.63456 7.29695 2.93843 6.98555 3.06741L5.56305 3.65658C5.25192 3.78544 4.89381 3.71437 4.65546 3.47647L4.20879 3.03064L3.03018 4.20833L3.47676 4.65491C3.71519 4.89334 3.78644 5.25196 3.65725 5.56343L3.06725 6.98593C2.93817 7.29713 2.63441 7.5 2.2975 7.5H1.66667V9.16667H2.2975C2.63456 9.16667 2.93843 9.36971 3.06741 9.68112L3.65658 11.1036C3.78544 11.4147 3.71437 11.7729 3.47647 12.0112L3.03064 12.4579L4.20833 13.6365L4.65546 13.1902C4.89381 12.9523 5.25192 12.8812 5.56305 13.0101L6.98555 13.5993C7.29695 13.7282 7.5 14.0321 7.5 14.3692V15H9.16667V14.3692C9.16667 14.0323 9.36953 13.7285 9.68074 13.5994L11.1032 13.0094C11.4147 12.8802 11.7733 12.9515 12.0118 13.1899L12.4583 13.6365L13.6365 12.4583L13.1902 12.0112C12.9523 11.7729 12.8812 11.4147 13.0101 11.1036L13.5993 9.68112C13.7282 9.36971 14.0321 9.16667 14.3692 9.16667H15V7.5H14.3692C14.0321 7.5 13.7282 7.29695 13.5993 6.98555L13.0101 5.56305C12.8812 5.25192 12.9523 4.89381 13.1902 4.65546L13.636 4.20879L12.4583 3.03018L12.0112 3.47647C11.7729 3.71437 11.4147 3.78544 11.1036 3.65658L9.68112 3.06741C9.36971 2.93843 9.16667 2.63456 9.16667 2.2975V1.66667ZM8.33333 6.66667C7.41286 6.66667 6.66667 7.41286 6.66667 8.33333C6.66667 9.25381 7.41286 10 8.33333 10C9.25381 10 10 9.25381 10 8.33333C10 7.41286 9.25381 6.66667 8.33333 6.66667ZM5 8.33333C5 6.49238 6.49238 5 8.33333 5C10.1743 5 11.6667 6.49238 11.6667 8.33333C11.6667 10.1743 10.1743 11.6667 8.33333 11.6667C6.49238 11.6667 5 10.1743 5 8.33333Z" fill="#4A5565"/>
</svg>
