<svg width="15" height="14" viewBox="0 0 15 14" fill="none" xmlns="http://www.w3.org/2000/svg">
<path fill-rule="evenodd" clip-rule="evenodd" d="M4.99626 1.66666C4.07647 1.66666 3.33084 2.41286 3.33084 3.33333C3.33084 4.2538 4.07647 4.99999 4.99626 4.99999C5.91604 4.99999 6.66168 4.2538 6.66168 3.33333C6.66168 2.41286 5.91604 1.66666 4.99626 1.66666ZM1.66542 3.33333C1.66542 1.49238 3.15669 0 4.99626 0C6.83583 0 8.3271 1.49238 8.3271 3.33333C8.3271 5.17428 6.83583 6.66666 4.99626 6.66666C3.15669 6.66666 1.66542 5.17428 1.66542 3.33333ZM12.0092 5.2454L7.15751 10.1007L6.89038 11.4378L8.22642 11.1704L13.1018 6.29138C13.3908 6.00217 13.4255 5.53455 13.1123 5.23193C12.9343 5.05994 12.7474 5.00919 12.5634 5.02031C12.3679 5.03212 12.1644 5.11723 12.0092 5.2454ZM10.8976 4.00365C11.6895 3.3144 13.1564 2.95786 14.269 4.03291C15.3819 5.10812 15.0919 6.65683 14.2795 7.46989L9.22576 12.5274C9.1095 12.6437 8.96143 12.723 8.80021 12.7553L5.99223 13.3171C5.71923 13.3718 5.43701 13.2863 5.24015 13.0892C5.04329 12.8922 4.95784 12.6098 5.01242 12.3366L5.57386 9.52653C5.60609 9.36518 5.68533 9.217 5.80159 9.10066L10.8553 4.04316C10.869 4.02951 10.8831 4.01633 10.8976 4.00365ZM3.33084 9.16666C2.41105 9.16666 1.66542 9.91285 1.66542 10.8333V11.6667H4.16355V13.3333H1.66542C0.745634 13.3333 0 12.5871 0 11.6667V10.8333C0 8.99237 1.49127 7.49999 3.33084 7.49999H4.99626V9.16666H3.33084Z" fill="#4A5565"/>
</svg>
